# xmcd CD database file
#
# Track frame offsets:
#	150
#	20107
#	42737
#	62657
#
# Disc length: 1136 seconds
#
# Revision: 6
# Processed by: cddbd v1.5.1PL2 Copyright (c) Steve Scherf et al.
# Submitted via: CDex 1.51
#
DISCID=36046e04
DTITLE=SMAP - らいおんハート
DYEAR=2000
DGENRE=J-Pop
TTITLE0=らいおんハート
TTITLE1=オレンジ
TTITLE2=らいおんハート (music track)
TTITLE3=オレンジ (music track)
EXTD=YEAR: 2000/08/30
EXTT0=
EXTT1=
EXTT2=
EXTT3=
PLAYORDER=
